<?xml version="1.0" encoding="utf-8"?>
<!-- Generator: Adobe Illustrator 19.1.1, SVG Export Plug-In . SVG Version: 6.00 Build 0)  -->
<svg version="1.1" id="Layer_1" xmlns="http://www.w3.org/2000/svg" xmlns:xlink="http://www.w3.org/1999/xlink" x="0px" y="0px"
	 viewBox="0 0 256 120.1" style="enable-background:new 0 0 256 120.1;" xml:space="preserve">
<style type="text/css">
	.st0{fill:#FF1535;}
</style>
<path class="st0" d="M102.8,63.5c-6.9-6.6-36.7-5.1-39.5,2c-1.2,3,0.6,6.4,3.6,7c2.9,0.6,2.9,0.7,3.6,10.5c0.5,6,1.3,10.8,2.3,12.3
	c1.5,2.3,1.9,2.4,9.4,1.7c15-1.4,22.9-5.1,25.6-12C110.2,78.6,107.8,68.3,102.8,63.5z M88.6,84.1C88.6,84.1,88.5,84.1,88.6,84.1
	c-0.3,0.5-0.9,0.9-1.6,0.9c-0.1,0-0.1,0-0.1,0c-0.9,0.4-2.3,0.2-2.8-1.1c-0.6-1.6-0.8-3.5-1.3-5.2c-0.5-1.8-0.8-3.6-1-5.5
	c0-0.2,0-0.3,0-0.5c0-0.4,0.2-0.8,0.5-1.2c3.1-3.4,8.3-0.5,10.2,2.8C94.8,78.3,92,81.9,88.6,84.1z"/>
<path id="XMLID_1_" class="st0" d="M124,90.3c2.7,0.6,6.9,0.9,9.4,0.6c7.5-0.8,12.1-5.5,9.1-9.2c-1-1.2-2.5-1.4-7.2-0.9
	c-6.1,0.7-9-0.3-9-3.2c0-0.9,1.9-1.4,6.4-1.7c5.6-0.3,6.4-0.6,6.4-2.4c0-1.8-0.8-2.1-6-2.4c-5.4-0.3-5.9-0.5-5.6-2.5
	c0.3-2,0.8-2.2,4.4-1.8c9.1,0.8,9.1,0.8,9.5-2c0.4-3.5-1.4-4.8-8.3-6.2c-7.3-1.5-12.1-0.5-16.5,3.4C106.8,70.6,111.3,87.5,124,90.3"
	/>
<path class="st0" d="M171.7,93.7c0.9,1,2.9,1.8,4.3,1.8c1.4,0,3.4-0.6,4.2-1.3l1.6-1.2l5.3-8.2c9.3-14.5,10.2-19.3,4.3-22.4
	c-4-2.1-6.3-0.6-9.9,6.4c-3.5,6.7-5.7,6.7-6.4,0.1c-0.7-5.8-2.5-8.2-6-7.8c-2.1,0.2-3.2,1.5-5.2,5.7c-1.4,2.9-3.1,5.4-3.7,5.4
	s-1.5-1.7-1.8-3.8c-0.9-4.9-3.2-7.4-6.6-7.4c-3,0-5.5,2.3-6.6,5.9c-1.7,5.5,3.7,23.6,7.7,26c3.1,1.9,6.6-0.1,10.6-6.1
	c3.6-5.4,3.9-5.7,5.3-3.9c0.8,1,1.4,3.5,1.4,5.4S170.8,92.7,171.7,93.7"/>
<path class="st0" d="M104.6,31.7c0.9-0.2,1.6,0.2,2,0.8c0.1,0.1,0.2,0.2,0.3,0.2c0.5,0.4,0.9,0.9,1.1,1.5c0.5,1,0.7,2.1,0.9,3.2
	c-0.1-1.7-0.8-3.6-1.6-4.4c-1.5-1.5-1.9-1.8-3.3-1.2C104.2,31.7,104.4,31.7,104.6,31.7z"/>
<path class="st0" d="M100.9,37.6c0.1-2,0.6-4.2,2.3-5.4c-0.1,0.1-0.2,0.1-0.3,0.2c-2.3,1.2-2.7,6.9-0.8,9c0.1,0.1,0.2,0.2,0.4,0.3
	C101.3,40.7,100.7,39.3,100.9,37.6z"/>
<path class="st0" d="M197.6,57.5c1.4,0.7,3.3,1.3,4.3,1.3c2.7,0,4.6-2.5,5.3-7.1c0.7-4.4,3.2-7.6,8.6-10.4c6.4-3.4,4.8-11-2.3-11
	c-2.3,0-4.1,0.9-6.1,3.1c-1.6,1.7-3.3,3.1-3.7,3.1c-0.4,0-1.7-2-2.8-4.6c-2.9-6.7-9-7.7-11.6-2c-1.1,2.4-0.8,3.5,2.3,9.3
	c2.7,5.1,3.5,7.8,3.5,11.8C195,55.6,195.4,56.4,197.6,57.5"/>
<path class="st0" d="M25.3,113.6c3.1,1.3,6.4,2.3,7.2,2.4c2.3,0.1,4-2,4-4.7c0-1.7-1.6-3.4-6-6.4C9.6,90.5,9,73.6,28.8,53.5
	c6.1-6.2,6.8-7.9,4.2-10.1c-4.1-3.4-22,11.8-27.8,23.7C-4.6,86.8,3.2,104.4,25.3,113.6"/>
<path class="st0" d="M114.2,24.7c-2-1.5-4.3-2-8.8-2c-10.1,0-15.8,5.8-15.8,15.9c0,8,4.2,13.6,11.5,15.2c1.8,0.4,4.7,0.5,6.4,0.2
	c8.3-1.4,12.9-6.6,13.1-14.9C120.7,33,118.4,28,114.2,24.7z M104.9,42.9c-2.7-0.5-4.2-2.6-4-5.3c0.1-2.5,0.9-5.4,3.8-6
	c0.9-0.2,1.6,0.2,2,0.8c0.1,0.1,0.2,0.2,0.3,0.2c0.5,0.4,0.9,0.9,1.1,1.5c0.6,1.3,0.8,2.8,1,4.2C109.3,41.1,107.8,43.4,104.9,42.9z"
	/>
<path class="st0" d="M164.4,52.7c2.6,1.3,6.4,2,10.1,2.1c3.2,0,6.8-0.4,7.9-1c2.7-1.4,4.3-4.7,3.5-7.3c-0.6-2-1.2-2.1-7-1.4
	c-5,0.5-6.6,0.3-7.6-0.9c-2.1-2.5-0.2-3.9,4.6-3.4c5.1,0.6,6.9-0.3,6.4-2.9c-0.3-1.6-1.3-1.9-5.4-1.9c-4.4,0-5.1-0.3-5.1-2
	c0-1.8,0.7-2,6.6-2c5.4,0,6.6-0.3,6.9-1.7c0.6-3.1-5.5-5.9-12.8-5.9c-8.3,0-11.6,1.8-14.5,7.7C153.9,40,156.8,49,164.4,52.7"/>
<path class="st0" d="M50.1,56.4c1.6,1.4,3.8,2.5,4.9,2.5c3.4,0,6.9-2.3,8.1-5.2c0.7-1.6,1-6,0.8-9.8c-0.3-5.5-0.1-6.9,1.2-7.2
	c1-0.2,2.5,1.8,4.4,6.4c4.3,9.8,9.2,12.9,14.7,9.1c1.8-1.3,2.3-2.5,2.3-7.2v-5.5l-4.1-25.6l-2.1-4C76.9,3.2,70.8,2.1,65.8,7
	c-2,2-2.1,2.8-1.4,10.2c0.6,6.8,0.5,8-0.8,8c-1.7,0-2.2-1.3-3.2-7.6c-1.1-6.8-2.9-8.7-7.9-8.7c-3.4,0-5,0.6-6.9,2.7
	c-2.4,2.5-2.5,3.2-2.5,16.1C43.2,43.7,45.3,52.3,50.1,56.4"/>
<path class="st0" d="M126.7,49.3c1.1,0.8,2.7,1.3,3.6,1.2c0.9-0.2,1.9-2.1,2.5-4.6c0.5-2.4,1.2-4.3,1.7-4.3c0.4,0,2,1.8,3.6,4.1
	c4.3,6.2,10,6.9,12.7,1.5c2.3-4.6,2.1-20.6-0.3-24.3c-1.5-2.3-2.5-2.8-5.1-2.5l-3.2,0.3l0.2,5.8c0.2,7.5-1.7,7.8-4.7,0.8
	c-2.4-5.5-5.1-7.7-8.8-6.7c-3.4,0.9-4.8,6.9-4.4,18.2C124.7,46.4,125.1,48.1,126.7,49.3"/>
<path class="st0" d="M150.1,115.9c0.4,0.6,1.2,1.1,1.7,1.1h1l9.3-2.6c53.6-15.1,91.5-43.4,91.7-68.5c0.2-19.6-20.7-34.4-56.8-40.6
	c-22.2-3.8-57-2.6-82.8,2.7l-10,2l-1.8,0.6c-1,0.3-1.8,1.3-1.8,2.1c0,1.3,1,1.5,5.4,1l5.4-0.5l13.8-2.3c17.9-2.9,45.4-3.2,60.7-0.6
	c12.2,2.1,26.6,6.7,33.6,10.7c6.6,3.8,13.2,10.2,16,15.6c3.2,6.1,3,15.8-0.3,23.2c-9,19.6-39.2,39.8-75.1,50.2l-8.3,2.4l-1.1,1.1
	C150,114.3,149.8,115.3,150.1,115.9"/>
</svg>
