<?xml version="1.0" encoding="utf-8"?>
<!-- Generator: Adobe Illustrator 19.1.1, SVG Export Plug-In . SVG Version: 6.00 Build 0)  -->
<svg version="1.1" id="svg2" xmlns:inkscape="http://www.inkscape.org/namespaces/inkscape"
	 xmlns="http://www.w3.org/2000/svg" xmlns:xlink="http://www.w3.org/1999/xlink" x="0px" y="0px" viewBox="-125 161.1 708.7 238.9"
	 style="enable-background:new -125 161.1 708.7 238.9;" xml:space="preserve">
<style type="text/css">
	.st0{fill:#FF1535;}
	.st1{fill:#065E10;}
	.st2{font-family:'SegoeUI-Bold';}
	.st3{font-size:96px;}
</style>
<path class="st0" d="M103.4,286.5c-12-11.5-63.6-8.9-68.4,3.5c-2,5.2,1,11.1,6.2,12.2c5,1.1,5.1,1.2,6.3,18.2
	c0.8,10.4,2.3,18.7,3.9,21.3c2.6,4,3.3,4.1,16.2,2.9c26-2.4,39.7-8.9,44.3-20.8C116.2,312.6,112.1,294.9,103.4,286.5z M78.8,322.1
	c0,0-0.1,0-0.1,0.1c-0.5,0.8-1.4,1.4-2.6,1.4c-0.1,0-0.1,0-0.2,0c-1.6,0.7-4,0.3-4.8-1.9c-1.1-2.8-1.4-6.1-2.2-9
	c-0.8-3.1-1.4-6.3-1.8-9.5c0-0.3,0-0.6,0-0.9c0-0.7,0.3-1.4,0.8-2c5.3-5.9,14.4-0.9,17.6,4.8C89.5,312.2,84.7,318.3,78.8,322.1z"/>
<path id="XMLID_1_" class="st0" d="M140,332.9c4.6,1,11.9,1.5,16.3,1.1c12.9-1.3,21-9.5,15.7-16c-1.8-2.1-4.4-2.4-12.5-1.5
	c-10.6,1.2-15.5-0.5-15.5-5.5c0-1.6,3.3-2.5,11-2.9c9.7-0.5,11-1,11-4.1s-1.4-3.6-10.3-4.1c-9.4-0.5-10.2-0.8-9.7-4.4
	c0.5-3.4,1.4-3.8,7.6-3.2c15.7,1.4,15.8,1.4,16.4-3.4c0.7-6-2.4-8.3-14.3-10.7c-12.7-2.6-21-0.9-28.6,5.8
	C110.3,298.9,118,328.1,140,332.9"/>
<path class="st0" d="M222.7,338.8c1.6,1.8,5,3.2,7.5,3.2s5.8-1,7.3-2.2l2.8-2.1l9.1-14.2c16.1-25.1,17.7-33.4,7.4-38.7
	c-7-3.6-10.9-1.1-17.2,11c-6,11.6-9.8,11.6-11.1,0.2c-1.2-10.1-4.3-14.2-10.4-13.5c-3.6,0.4-5.5,2.6-9,9.8c-2.4,5.1-5.3,9.3-6.4,9.3
	c-1.1,0-2.6-3-3.2-6.6c-1.6-8.4-5.5-12.8-11.5-12.8c-5.2,0-9.5,3.9-11.4,10.2c-2.9,9.5,6.4,40.9,13.3,45c5.4,3.3,11.4-0.2,18.3-10.6
	c6.2-9.4,6.8-9.8,9.1-6.8c1.3,1.8,2.4,6.1,2.4,9.4S221.1,337,222.7,338.8"/>
<path class="st0" d="M106.4,231.4c1.6-0.3,2.8,0.4,3.5,1.4c0.2,0.1,0.4,0.3,0.6,0.4c0.9,0.7,1.5,1.6,1.9,2.6
	c0.8,1.7,1.2,3.6,1.5,5.5c-0.2-3-1.3-6.3-2.7-7.6c-2.6-2.6-3.3-3.1-5.7-2.1C105.8,231.5,106.1,231.4,106.4,231.4z"/>
<path class="st0" d="M100,241.7c0.2-3.4,1-7.3,3.9-9.3c-0.2,0.1-0.4,0.2-0.5,0.3c-3.9,2.1-4.7,12-1.3,15.5c0.2,0.2,0.4,0.4,0.7,0.6
	C100.8,247.1,99.8,244.6,100,241.7z"/>
<path class="st0" d="M267.5,276.2c2.4,1.2,5.7,2.3,7.4,2.3c4.6,0,7.9-4.4,9.2-12.3c1.2-7.7,5.6-13.1,14.8-18c11-5.9,8.3-19.1-4-19.1
	c-3.9,0-7.1,1.6-10.6,5.3c-2.8,2.9-5.7,5.3-6.4,5.3c-0.7,0-2.9-3.5-4.8-7.9c-5.1-11.6-15.5-13.4-20-3.4c-1.9,4.1-1.4,6,4,16.1
	c4.7,8.8,6.1,13.5,6.1,20.5C263,272.8,263.6,274.3,267.5,276.2"/>
<path class="st0" d="M-30.7,373.2c5.4,2.2,11,4,12.5,4.1c3.9,0.1,7-3.5,7-8.2c0-2.9-2.8-5.9-10.3-11C-58,333.3-59,304-24.7,269.3
	c10.5-10.7,11.7-13.6,7.2-17.4c-7.1-5.9-38,20.4-48.2,41C-82.5,326.8-69.1,357.4-30.7,373.2"/>
<path class="st0" d="M123.1,219.4c-3.5-2.6-7.4-3.5-15.3-3.5c-17.4,0-27.3,10-27.3,27.5c0,13.8,7.3,23.5,19.9,26.3
	c3.1,0.7,8.1,0.9,11,0.4c14.3-2.4,22.4-11.5,22.7-25.8C134.3,233.8,130.4,225,123.1,219.4z M107,250.8c-4.6-0.9-7.3-4.5-7-9.1
	c0.2-4.3,1.5-9.4,6.5-10.4c1.6-0.3,2.8,0.4,3.5,1.4c0.2,0.1,0.4,0.3,0.6,0.4c0.9,0.7,1.5,1.6,1.9,2.6c1,2.2,1.4,4.8,1.7,7.2
	C114.6,247.7,112.1,251.8,107,250.8z"/>
<path class="st0" d="M210,267.8c4.5,2.2,11,3.5,17.4,3.6c5.6,0,11.8-0.7,13.6-1.7c4.7-2.5,7.4-8.2,6-12.6c-1.1-3.4-2.1-3.6-12.1-2.5
	c-8.7,0.9-11.4,0.6-13.2-1.5c-3.7-4.4-0.4-6.8,7.9-5.9c8.8,1,12-0.5,11.1-5.1c-0.5-2.7-2.2-3.3-9.4-3.3c-7.6,0-8.8-0.5-8.8-3.5
	c0-3.2,1.2-3.5,11.4-3.5c9.4,0,11.5-0.5,12-3c1.1-5.3-9.6-10.2-22.2-10.2c-14.3,0-20.1,3.1-25.1,13.3
	C191.9,245.8,196.8,261.4,210,267.8"/>
<path class="st0" d="M12.1,274.2c2.8,2.4,6.6,4.3,8.4,4.3c5.9,0,12-3.9,14.1-9c1.2-2.8,1.8-10.3,1.4-16.9c-0.5-9.6-0.1-12,2-12.5
	c1.8-0.4,4.3,3.2,7.7,11c7.4,16.9,16,22.3,25.4,15.8c3.2-2.3,3.9-4.4,3.9-12.4v-9.6l-7.1-44.3l-3.6-7c-5.8-11.4-16.3-13.4-24.9-4.9
	c-3.4,3.4-3.6,4.9-2.5,17.6c1,11.7,0.8,13.9-1.4,13.9c-2.9,0-3.8-2.2-5.6-13.2c-1.9-11.7-5-15-13.7-15c-5.9,0-8.6,1-11.9,4.6
	c-4.1,4.3-4.3,5.6-4.3,27.8C0.2,252.2,3.8,267.2,12.1,274.2"/>
<path class="st0" d="M144.8,262c1.9,1.4,4.7,2.3,6.2,2c1.6-0.3,3.3-3.6,4.3-8c0.9-4.1,2.1-7.5,2.9-7.5c0.7,0,3.5,3.2,6.2,7.1
	c7.5,10.8,17.3,11.9,22,2.6c4-8,3.7-35.6-0.5-42.1c-2.6-3.9-4.3-4.8-8.8-4.3l-5.6,0.5l0.3,10.1c0.4,13-2.9,13.5-8.1,1.4
	c-4.1-9.6-8.9-13.3-15.3-11.6c-5.8,1.5-8.3,11.9-7.6,31.5C141.2,256.9,141.9,259.8,144.8,262"/>
<path class="st0" d="M185.3,377.2c0.7,1.1,2,1.9,2.9,1.9h1.8l16.1-4.5c92.7-26.1,158.4-75.1,158.8-118.6
	c0.3-33.9-35.8-59.6-98.3-70.2c-38.4-6.5-98.7-4.5-143.3,4.6l-17.3,3.5l-3.1,1c-1.7,0.5-3.1,2.2-3.1,3.7c0,2.3,1.7,2.6,9.3,1.8
	l9.3-0.9l23.8-3.9c30.9-5.1,78.6-5.5,105-1c21.1,3.7,46,11.6,58.2,18.6c11.5,6.6,22.9,17.7,27.7,27c5.5,10.6,5.2,27.4-0.6,40.2
	c-15.6,34-67.8,68.8-130,86.8l-14.4,4.2l-1.9,1.9C185,374.4,184.7,376.1,185.3,377.2"/>
<text transform="matrix(1 0 0 1 295.0623 377.3072)" class="st1 st2 st3">.co.in</text>
</svg>
